<svg width="114" height="74" viewBox="0 0 114 74" fill="none" xmlns="http://www.w3.org/2000/svg">
<path d="M16.6985 53V46.6H26.0425V53H16.6985ZM0.1225 62.6C2.5545 63.24 4.5385 63.5173 6.0745 63.432C7.65317 63.3467 8.86917 63.0053 9.7225 62.408C10.5758 61.8107 11.1518 61.064 11.4505 60.168C11.7918 59.272 11.9625 58.376 11.9625 57.48V35.208L18.3625 33.8V56.84C18.3625 59.1013 17.8718 60.936 16.8905 62.344C15.9518 63.7947 14.7145 64.84 13.1785 65.48C11.6425 66.1627 10.0212 66.4827 8.3145 66.44C6.6505 66.3973 5.09317 66.0347 3.6425 65.352C2.14917 64.712 0.975833 63.7947 0.1225 62.6ZM67.647 13.264C65.9403 13.264 64.4683 12.6453 63.231 11.408C61.9937 10.128 61.375 8.61333 61.375 6.864C61.375 5.11467 61.9937 3.62133 63.231 2.384C64.4683 1.104 65.9403 0.463999 67.647 0.463999C69.3963 0.463999 70.8897 1.104 72.127 2.384C73.407 3.62133 74.047 5.11467 74.047 6.864C74.047 8.61333 73.407 10.128 72.127 11.408C70.8897 12.6453 69.3963 13.264 67.647 13.264ZM67.711 11.024C68.9057 11.024 69.9083 10.6187 70.719 9.808C71.5297 8.99733 71.935 7.99467 71.935 6.8C71.935 5.60533 71.5297 4.60267 70.719 3.792C69.951 2.98133 68.9483 2.55467 67.711 2.512C66.5163 2.46933 65.5137 2.87467 64.703 3.728C63.8923 4.58133 63.487 5.60533 63.487 6.8C63.487 7.99467 63.8923 8.99733 64.703 9.808C65.5137 10.6187 66.5163 11.024 67.711 11.024ZM23.47 53V46.6H73.71C73.7527 44.808 73.39 43.2933 72.622 42.056C71.8967 40.8187 70.3393 40.2 67.95 40.2H30.766C31.8753 38.664 33.1127 36.8933 34.478 34.888C35.886 32.8827 37.3153 30.856 38.766 28.808C40.2167 26.7173 41.5393 24.7973 42.734 23.048C43.9713 21.256 44.9527 19.8267 45.678 18.76C46.446 17.6507 46.83 17.096 46.83 17.096C47.342 16.3707 47.598 15.5173 47.598 14.536C47.6407 13.512 47.47 12.5093 47.086 11.528C46.702 10.5467 46.1473 9.75733 45.422 9.16C44.5687 8.43466 43.5447 7.944 42.35 7.688C41.1553 7.432 39.918 7.38933 38.638 7.56C37.9553 7.64533 37.1873 7.944 36.334 8.456C35.5233 8.92533 34.8407 9.39466 34.286 9.864L31.47 0.327999C32.1953 0.541332 33.006 0.733332 33.902 0.903999C34.798 1.032 35.6727 1.032 36.526 0.903999C38.062 0.605331 39.6407 0.498664 41.262 0.583996C42.926 0.626664 44.5047 0.903998 45.998 1.416C47.4913 1.928 48.814 2.73867 49.966 3.848C51.7153 5.46933 52.9527 7.32533 53.678 9.416C54.446 11.464 54.6807 13.576 54.382 15.752C54.126 17.928 53.3153 20.04 51.95 22.088L43.822 33.8H67.95C70.5953 33.8 72.7073 34.1627 74.286 34.888C75.8647 35.6133 77.0593 36.5947 77.87 37.832C78.7233 39.0267 79.2993 40.392 79.598 41.928C79.8967 43.4213 80.0673 44.9787 80.11 46.6H89.07V53H23.47ZM97.1505 73.44L96.0625 71.52L110.463 63.2L111.551 65.12L97.1505 73.44ZM103.837 18.712C102.813 18.712 101.938 18.3493 101.213 17.624C100.488 16.8987 100.125 16.024 100.125 15C100.125 13.976 100.488 13.1013 101.213 12.376C101.938 11.6507 102.813 11.288 103.837 11.288C104.861 11.288 105.736 11.6507 106.461 12.376C107.186 13.1013 107.549 13.976 107.549 15C107.549 16.024 107.186 16.8987 106.461 17.624C105.736 18.3493 104.861 18.712 103.837 18.712ZM86.5325 53V46.6H107.013V38.408L113.413 33.8V51.528C113.413 52.04 113.199 52.4027 112.773 52.616C112.346 52.8293 111.919 52.9573 111.493 53C111.066 53 110.853 53 110.853 53H86.5325ZM103.877 43.4C102.127 43.4 100.527 42.9733 99.0765 42.12C97.6258 41.2667 96.4525 40.1147 95.5565 38.664C94.7032 37.1707 94.2765 35.5493 94.2765 33.8C94.2765 32.008 94.7032 30.3867 95.5565 28.936C96.4525 27.4853 97.6258 26.3333 99.0765 25.48C100.527 24.6267 102.127 24.2 103.877 24.2C105.626 24.2 107.226 24.6267 108.677 25.48C110.127 26.3333 111.279 27.4853 112.133 28.936C112.986 30.3867 113.413 32.008 113.413 33.8C113.413 35.5493 112.986 37.1707 112.133 38.664C111.279 40.1147 110.127 41.2667 108.677 42.12C107.226 42.9733 105.626 43.4 103.877 43.4ZM103.877 37C104.773 37 105.519 36.7013 106.117 36.104C106.757 35.464 107.077 34.696 107.077 33.8C107.077 32.904 106.757 32.1573 106.117 31.56C105.519 30.92 104.773 30.6 103.877 30.6C102.981 30.6 102.213 30.92 101.573 31.56C100.975 32.1573 100.677 32.904 100.677 33.8C100.677 34.696 100.975 35.464 101.573 36.104C102.213 36.7013 102.981 37 103.877 37Z" fill="#0B3545"/>
</svg>
